HIERARCHY
ROOT Hips
{
	OFFSET 0.000000 0.000000 0.000000
	CHANNELS 6 Xposition Yposition Zposition Yrotation Xrotation Zrotation
	JOINT Spine
	{
		OFFSET 0.000000 -0.000000 1.489414
		CHANNELS 6 Xposition Yposition Zposition Yrotation Xrotation Zrotation
		JOINT Spine1
		{
			OFFSET 0.000000 -0.000001 4.064480
			CHANNELS 6 Xposition Yposition Zposition Yrotation Xrotation Zrotation
			JOINT Neck
			{
				OFFSET 0.000000 -0.000001 4.427760
				CHANNELS 6 Xposition Yposition Zposition Yrotation Xrotation Zrotation
				JOINT Head
				{
					OFFSET 0.000000 -0.363272 2.815360
					CHANNELS 6 Xposition Yposition Zposition Yrotation Xrotation Zrotation
					End Site
					{
						OFFSET 0.000000 -0.000001 3.632711
					}
				}
			}
			JOINT LeftShoulder
			{
				OFFSET 0.731534 0.096024 3.575179
				CHANNELS 6 Xposition Yposition Zposition Yrotation Xrotation Zrotation
				JOINT LeftArm
				{
					OFFSET 2.610320 0.000000 0.000000
					CHANNELS 6 Xposition Yposition Zposition Yrotation Xrotation Zrotation
					JOINT LeftForeArm
					{
						OFFSET 5.118420 0.000000 0.000000
						CHANNELS 6 Xposition Yposition Zposition Yrotation Xrotation Zrotation
						JOINT LeftHand
						{
							OFFSET 4.756899 0.000000 0.000000
							CHANNELS 6 Xposition Yposition Zposition Yrotation Xrotation Zrotation
							End Site
							{
								OFFSET 2.724534 0.000000 0.000000
							}
						}
					}
				}
			}
			JOINT RightShoulder
			{
				OFFSET -0.721442 0.096024 3.575179
				CHANNELS 6 Xposition Yposition Zposition Yrotation Xrotation Zrotation
				JOINT RightArm
				{
					OFFSET -2.610320 0.000000 0.000000
					CHANNELS 6 Xposition Yposition Zposition Yrotation Xrotation Zrotation
					JOINT RightForeArm
					{
						OFFSET -5.118420 0.000000 0.000000
						CHANNELS 6 Xposition Yposition Zposition Yrotation Xrotation Zrotation
						JOINT RightHand
						{
							OFFSET -4.756900 0.000000 0.000000
							CHANNELS 6 Xposition Yposition Zposition Yrotation Xrotation Zrotation
							End Site
							{
								OFFSET -2.724534 0.000000 0.000000
							}
						}
					}
				}
			}
		}
	}
	JOINT LeftUpLeg
	{
		OFFSET 1.816360 0.000000 0.000000
		CHANNELS 6 Xposition Yposition Zposition Yrotation Xrotation Zrotation
		JOINT LeftLeg
		{
			OFFSET 0.000000 0.000001 -7.638980
			CHANNELS 6 Xposition Yposition Zposition Yrotation Xrotation Zrotation
			JOINT LeftFoot
			{
				OFFSET 0.000000 0.000001 -8.008600
				CHANNELS 6 Xposition Yposition Zposition Yrotation Xrotation Zrotation
				JOINT LeftToeBase
				{
					OFFSET 0.000000 -2.724540 -1.180634
					CHANNELS 6 Xposition Yposition Zposition Yrotation Xrotation Zrotation
					End Site
					{
						OFFSET 0.000000 -0.726542 0.000000
					}
				}
			}
		}
	}
	JOINT RightUpLeg
	{
		OFFSET -1.816360 0.000000 0.000000
		CHANNELS 6 Xposition Yposition Zposition Yrotation Xrotation Zrotation
		JOINT RightLeg
		{
			OFFSET 0.000000 0.000001 -7.638980
			CHANNELS 6 Xposition Yposition Zposition Yrotation Xrotation Zrotation
			JOINT RightFoot
			{
				OFFSET 0.000000 0.000001 -8.008600
				CHANNELS 6 Xposition Yposition Zposition Yrotation Xrotation Zrotation
				JOINT RightToeBase
				{
					OFFSET 0.000000 -2.724540 -1.180634
					CHANNELS 6 Xposition Yposition Zposition Yrotation Xrotation Zrotation
					End Site
					{
						OFFSET 0.000000 -0.726542 0.000000
					}
				}
			}
		}
	}
}
MOTION
Frames: 4
Frame Time: 0.016667
-3.320508 -3.965532 15.905985 0.330559 7.409363 -2.510293 0.000000 -0.000000 1.489414 1.600130 -22.163479 10.160187 0.000000 -0.000000 4.064481 -9.853112 21.521996 1.616244 -0.000000 -0.000001 4.427761 -7.031623 0.190231 -2.285300 0.000001 -0.363271 2.815362 1.267126 7.398212 -1.167104 0.731534 0.096024 3.575179 -13.445456 -2.751484 1.386121 2.610320 -0.000000 -0.000003 47.676418 11.846891 -6.551526 5.118422 -0.000000 -0.000002 0.793531 -32.166796 -76.148160 4.756898 -0.000000 0.000000 -23.382637 -27.392346 28.936742 -0.721442 0.096024 3.575178 7.337897 -5.471761 7.225681 -2.610320 0.000000 -0.000001 -43.496386 14.638965 36.814808 -5.118419 0.000000 0.000001 48.004864 -51.580325 76.483195 -4.756897 0.000001 -0.000001 58.008339 -9.452697 -15.920739 1.816361 -0.000000 -0.000001 -1.233291 -9.013698 2.064594 0.000000 0.000001 -7.638980 -2.396588 10.685483 4.499899 0.000000 0.000001 -8.008598 -3.332678 -3.767024 22.202225 -0.000000 -2.724540 -1.180632 -0.000001 0.000000 0.000001 -1.816360 -0.000000 -0.000002 17.949344 -19.974161 0.728223 -0.000000 0.000001 -7.638980 -5.637928 21.976374 13.372120 -0.000000 0.000001 -8.008598 -3.175323 -1.418689 -47.859846 -0.000001 -2.724539 -1.180634 0.000000 0.000003 0.000001 
-3.285182 -3.953485 15.908001 0.332864 7.390118 -2.662654 0.000000 -0.000000 1.489414 1.511896 -22.093608 10.038554 -0.000000 -0.000001 4.064480 -9.657119 21.429659 1.615017 0.000000 -0.000001 4.427763 -7.219988 0.432861 -2.071803 -0.000000 -0.363272 2.815359 1.529975 7.211747 -0.857460 0.731534 0.096024 3.575183 -13.369553 -3.040550 1.107820 2.610321 0.000000 0.000001 47.439595 9.759758 -7.394834 5.118420 -0.000000 -0.000003 0.113789 -32.948501 -75.644755 4.756900 -0.000000 -0.000001 -26.597660 -26.672695 30.233139 -0.721442 0.096024 3.575181 7.295795 -5.284996 7.134729 -2.610319 0.000000 -0.000001 -44.059129 14.767383 36.740650 -5.118417 0.000000 -0.000001 47.747848 -51.191206 76.822068 -4.756898 0.000002 0.000000 58.031220 -9.008061 -15.606221 1.816360 0.000000 -0.000000 -1.141298 -9.096837 2.090523 -0.000000 0.000001 -7.638982 -2.358483 10.833140 4.822977 0.000000 0.000001 -8.008597 -3.377260 -3.813270 22.002076 -0.000000 -2.724539 -1.180632 -0.000002 0.000000 0.000001 -1.816360 -0.000000 0.000001 17.780943 -20.210301 1.120580 0.000000 0.000002 -7.638980 -5.952101 22.397594 12.758472 0.000000 0.000001 -8.008599 -2.563893 -2.066702 -47.939441 0.000000 -2.724540 -1.180631 -0.000001 0.000005 0.000002 
-3.253563 -3.940184 15.910355 0.351690 7.338816 -2.789044 0.000000 -0.000001 1.489414 1.452547 -21.982687 9.859513 0.000000 0.000000 4.064481 -9.501953 21.345676 1.587564 -0.000000 -0.000001 4.427760 -7.351034 0.685736 -1.825307 0.000000 -0.363272 2.815357 1.753487 6.995449 -0.528974 0.731534 0.096024 3.575176 -13.315888 -3.429534 0.817845 2.610319 0.000000 0.000001 47.192448 8.029794 -8.073367 5.118421 -0.000000 -0.000002 -0.607391 -33.896726 -75.144573 4.756899 -0.000001 -0.000000 -29.841957 -26.016821 31.539922 -0.721442 0.096024 3.575181 7.277777 -5.155183 7.092173 -2.610319 0.000000 -0.000000 -44.459088 15.167666 36.616309 -5.118419 0.000000 0.000001 47.937652 -50.910704 76.679317 -4.756900 -0.000001 -0.000002 58.174354 -8.578689 -15.386357 1.816360 -0.000001 -0.000000 -1.176223 -9.180296 1.978730 0.000000 0.000001 -7.638982 -2.117486 11.053608 4.833134 0.000000 0.000000 -8.008599 -3.534773 -3.870377 22.223935 0.000000 -2.724539 -1.180632 -0.000000 0.000002 0.000001 -1.816360 -0.000001 0.000000 17.564376 -20.382980 1.564610 0.000000 0.000003 -7.638979 -6.249533 22.762174 12.031901 -0.000000 0.000001 -8.008599 -2.215963 -2.668852 -47.886159 0.000000 -2.724539 -1.180632 0.000000 0.000002 0.000002 
-3.223377 -3.928788 15.912848 0.374515 7.296438 -2.899922 -0.000000 -0.000000 1.489414 1.383752 -21.889961 9.648812 0.000000 -0.000001 4.064483 -9.331679 21.258612 1.551906 -0.000000 -0.000001 4.427756 -7.513686 0.959695 -1.565515 -0.000000 -0.363272 2.815363 2.061158 6.783121 -0.165107 0.731534 0.096024 3.575177 -13.256759 -3.716227 0.578072 2.610320 -0.000000 -0.000000 46.800948 6.240731 -8.826839 5.118419 0.000001 -0.000001 -1.137654 -34.611468 -74.648947 4.756899 0.000000 0.000002 -33.102092 -25.166585 32.796369 -0.721442 0.096024 3.575177 7.261279 -4.938676 7.022255 -2.610320 -0.000000 -0.000003 -44.816744 15.517158 36.573112 -5.118418 0.000000 0.000001 47.886374 -50.564758 76.694452 -4.756899 0.000001 -0.000003 58.360483 -8.232220 -15.059483 1.816360 0.000000 -0.000001 -1.196103 -9.274606 1.997728 0.000000 0.000001 -7.638982 -1.937439 11.269764 4.820818 0.000001 0.000000 -8.008600 -3.640382 -3.924333 22.347790 -0.000000 -2.724540 -1.180632 0.000001 0.000001 -0.000001 -1.816360 -0.000000 0.000001 17.342569 -20.507792 1.999963 -0.000000 0.000003 -7.638980 -6.446165 23.066339 11.770448 -0.000000 -0.000000 -8.008599 -1.837990 -3.072463 -47.869316 -0.000000 -2.724540 -1.180632 0.000001 -0.000001 0.000002 
